<svg width="25" height="25" viewBox="0 0 25 25" fill="none" xmlns="http://www.w3.org/2000/svg">
<path d="M3.77344 2.78141C6.11967 0.981963 9.24978 -0.0156298 12.5 0.000185206C15.7502 -0.0156298 18.8803 0.981963 21.2266 2.78141C23.7422 4.63973 25 7.1293 25 10.2501C25 12.3334 23.9583 14.598 21.875 17.0438C19.202 20.0149 16.0497 22.6901 12.5 25C8.9503 22.6901 5.79798 20.0149 3.125 17.0438C1.04167 14.6022 0 12.3376 0 10.2501C0 7.12513 1.25781 4.63557 3.77344 2.78141ZM4.82031 15.6751C7.00955 18.2154 9.58972 20.5252 12.5 22.55C15.3613 20.5005 17.9173 18.1936 20.1172 15.6751C21.8099 13.6209 22.6562 11.8126 22.6562 10.2501C22.7073 9.13653 22.4715 8.02646 21.9635 6.9889C21.4554 5.95134 20.686 5.00847 19.7031 4.2189C18.7649 3.45681 17.6422 2.85588 16.4036 2.45289C15.1651 2.04989 13.8368 1.85331 12.5 1.87517C11.1632 1.85331 9.83491 2.04989 8.59637 2.45289C7.35782 2.85588 6.23509 3.45681 5.29688 4.2189C4.31396 5.00847 3.54457 5.95134 3.03654 6.9889C2.52851 8.02646 2.29269 9.13653 2.34375 10.2501C2.34375 11.8126 3.16927 13.6209 4.82031 15.6751Z" fill="#134488"/>
<path d="M15.1367 14.3749H16.4062L12.7344 6.25H11.4844L7.8125 14.3749H9.08203L12.0703 7.53539H12.1484L15.1367 14.3749ZM14.668 11.2011H9.55078V12.0739H14.668V11.2011Z" fill="#134488"/>
</svg>
