<svg width="150" height="150" viewBox="0 0 150 150" fill="none" xmlns="http://www.w3.org/2000/svg">
<g clip-path="url(#clip0_163_73)">
<path fill-rule="evenodd" clip-rule="evenodd" d="M118.75 137.5H131.25V62.9313C124 58.225 115.531 53.5 107.406 50.1063C109.462 46.7062 110.994 42.675 111.762 38.375C123.144 43.0625 133.631 49.3312 143.75 56.25V137.5H150V150H0V137.5H6.25V56.25C16.3438 49.475 26.8625 43.25 38.2625 38.5625C39.1188 42.7125 40.6812 46.6437 42.8125 50.2062C34.3125 53.725 26.475 58.125 18.8188 62.9562L18.75 63V137.5H31.25V106.25H118.75V137.5ZM43.75 143.75H62.5V118.75H43.75V143.75ZM68.75 143.75H81.25V118.75H68.75V143.75ZM87.5 143.75H106.25V118.75H87.5V143.75ZM31.25 100H43.75V87.5H31.25V100ZM56.25 100H68.75V87.5H56.25V100ZM81.25 100H93.75V87.5H81.25V100ZM106.25 100H118.75V87.5H106.25V100ZM31.25 81.25H43.75V68.75H31.25V81.25ZM56.25 81.25H68.75V68.75H56.25V81.25ZM81.25 81.25H93.75V68.75H81.25V81.25ZM106.25 81.25H118.75V68.75H106.25V81.25ZM75 0C92.25 0 106.25 14 106.25 31.25C106.25 48.5 92.25 62.5 75 62.5C57.75 62.5 43.75 48.5 43.75 31.25C43.75 14 57.75 0 75 0ZM81.25 25V12.5H68.75V25H56.25V37.5H68.75V50H81.25V37.5H93.75V25H81.25Z" fill="#FFBEBE"/>
</g>
<defs>
<clipPath id="clip0_163_73">
<rect width="150" height="150" fill="white"/>
</clipPath>
</defs>
</svg>
