<svg width="150" height="150" viewBox="0 0 150 150" fill="none" xmlns="http://www.w3.org/2000/svg">
<path d="M36.4345 2.17616C21.4559 6.87437 10.7954 16.1366 4.18322 29.8285C0.404828 37.6141 0 39.896 0 50.6348C0.134943 60.2997 0.809656 64.1925 3.23862 69.8303C6.20736 76.2736 6.34231 77.4817 4.85794 84.7303C2.29403 97.6168 5.39771 100.57 18.0823 97.3484C24.8295 95.6033 26.3138 95.6033 33.6007 97.7511C38.0538 99.0934 45.2058 100.302 49.389 100.302H57.0807L57.6205 108.356C59.5097 137.082 89.467 157.083 117.4 148.357C124.957 145.941 126.036 145.941 133.323 147.821C140.745 149.834 141.15 149.7 143.984 147.015C146.683 144.33 146.683 143.659 145.198 136.142C143.849 128.893 143.984 127.685 146.683 121.645C151.406 111.711 151.001 95.0664 146.008 84.5961C138.856 69.8303 121.313 58.0177 106.605 58.0177H100.532V50.769C100.532 34.9294 91.896 18.1501 79.4812 9.55907C67.3364 1.23653 49.2541 -1.85088 36.4345 2.17616ZM67.7412 11.7068C94.7298 23.9221 100.937 60.7024 79.3463 80.9718C71.2497 88.7574 63.558 91.979 51.9529 92.5159C44.2612 93.0529 40.078 92.5159 34.1405 90.3682C27.1235 87.952 25.909 87.952 19.4317 89.5628C15.5184 90.6367 12.0099 91.1736 11.6051 90.9051C11.3352 90.5024 11.74 87.1466 12.5497 83.388C14.034 77.3474 13.8991 76.0051 10.9304 69.0249C6.3423 58.1519 5.53265 49.5609 8.09656 40.0303C11.3352 27.6807 18.757 18.2843 29.5524 12.7807C42.372 6.33743 55.0566 5.93474 67.7412 11.7068ZM117.13 67.4141C133.053 73.3204 143.039 87.415 142.904 103.523C142.769 109.295 141.69 115.067 139.801 120.168C137.372 126.343 136.967 129.296 137.642 134.666L138.586 141.512L134.133 140.438C127.521 138.827 122.528 139.095 113.082 141.78C89.332 148.223 66.7966 131.847 64.5026 106.342L63.8279 98.825L70.0352 96.4087C78.6716 93.1871 89.7369 82.5826 94.9996 72.9177C99.1829 64.9979 99.5877 64.7294 104.581 64.7294C107.549 64.7294 113.082 65.9375 117.13 67.4141Z" fill="#FFBEBE"/>
<path d="M43.3167 29.8287C37.6491 31.5737 30.4972 38.9566 28.8779 44.8629C26.4489 54.1251 31.4418 65.1323 40.213 69.562C43.3167 71.1729 46.5554 71.5756 52.4928 71.0386C59.5098 70.3675 61.1292 70.6359 63.6931 73.0521C69.0908 78.0188 73.6788 72.6494 68.6859 67.2801C66.6618 64.9981 66.6618 64.4611 68.6859 60.1656C71.7896 53.4539 71.5197 44.5944 67.7413 39.2251C62.4786 31.3052 51.8181 27.2782 43.3167 29.8287ZM56.4062 38.017C60.0496 39.6278 64.0979 45.8025 64.0979 49.6953C64.0979 51.3062 63.5581 53.9909 62.7485 56.0044L61.399 59.4945L57.4857 56.5413C54.1121 53.9909 53.0326 53.8566 51.2783 55.3332C49.3891 56.8098 49.3891 57.3467 51.2783 60.1656C53.9772 64.3269 53.8423 64.7296 49.794 64.7296C45.071 64.7296 38.9986 60.971 37.2443 57.0782C31.3068 44.0575 43.3167 32.1106 56.4062 38.017Z" fill="#FFBEBE"/>
<path d="M102.286 83.2539C99.9924 84.7305 81.9101 121.511 82.5848 123.39C83.9342 126.88 88.3873 125.269 90.6814 120.437C92.8405 116.007 93.3802 115.739 99.3177 115.739C102.691 115.739 107.414 115.336 109.708 114.933C113.487 114.128 114.026 114.53 116.59 119.631C119.694 125.672 124.822 127.417 124.822 122.45C124.822 119.229 108.359 86.0728 105.66 83.925C104.715 82.9854 103.096 82.7169 102.286 83.2539ZM107.279 100.973C108.764 103.792 109.978 106.611 109.978 107.013C109.978 107.416 107.279 107.685 103.906 107.685C100.532 107.685 97.8333 107.416 97.8333 107.013C97.8333 105.671 103.231 95.6034 103.906 95.6034C104.311 95.6034 105.795 98.0197 107.279 100.973Z" fill="#FFBEBE"/>
</svg>
