<svg width="25" height="25" viewBox="0 0 25 25" fill="none" xmlns="http://www.w3.org/2000/svg">
<path d="M12.5 17.3438C12.8906 17.3438 13.2292 17.2292 13.5156 17C13.8021 16.7708 13.9453 16.5 13.9453 16.1875C13.9453 15.875 13.8021 15.6042 13.5156 15.375C13.2292 15.1458 12.8906 15.0312 12.5 15.0312C12.1094 15.0312 11.7708 15.1458 11.4844 15.375C11.1979 15.6042 11.0547 15.875 11.0547 16.1875C11.0547 16.5 11.1979 16.7708 11.4844 17C11.7708 17.2292 12.1094 17.3438 12.5 17.3438ZM11.5234 13.4687H13.4766C13.4766 13.1562 13.4831 12.8854 13.4961 12.6562C13.5091 12.4271 13.5807 12.2292 13.7109 12.0625C13.8151 11.8958 13.9583 11.7396 14.1406 11.5937C14.3229 11.4479 14.6484 11.1979 15.1172 10.8438C15.7161 10.4271 16.1393 10.0156 16.3867 9.60938C16.6341 9.20313 16.7578 8.72917 16.7578 8.1875C16.7578 7.25 16.3867 6.51042 15.6445 5.96875C14.9023 5.42708 13.8932 5.15625 12.6172 5.15625C11.6276 5.15625 10.7292 5.375 9.92188 5.8125C9.11458 6.25 8.56771 6.82292 8.28125 7.53125L10.0391 8.09375C10.2474 7.67708 10.5859 7.33333 11.0547 7.0625C11.5234 6.79167 12.0443 6.65625 12.6172 6.65625C13.2943 6.65625 13.8281 6.80208 14.2188 7.09375C14.6094 7.38542 14.8047 7.77083 14.8047 8.25C14.8047 8.60417 14.7005 8.91667 14.4922 9.1875C14.2839 9.45833 13.9193 9.78125 13.3984 10.1562C12.9557 10.4896 12.6107 10.7656 12.3633 10.9844C12.1159 11.2031 11.9401 11.4167 11.8359 11.625C11.7318 11.8125 11.6536 12.0469 11.6016 12.3281C11.5495 12.6094 11.5234 12.9896 11.5234 13.4687ZM12.5 22.5312C15.9635 20.0104 18.5221 17.724 20.1758 15.6719C21.8294 13.6198 22.6562 11.8125 22.6562 10.25C22.6562 7.79167 21.6732 5.78125 19.707 4.21875C17.7409 2.65625 15.3385 1.875 12.5 1.875C9.66146 1.875 7.25911 2.65625 5.29297 4.21875C3.32682 5.78125 2.34375 7.79167 2.34375 10.25C2.34375 11.8125 3.1901 13.6198 4.88281 15.6719C6.57552 17.724 9.11458 20.0104 12.5 22.5312ZM12.5 25C8.30729 22.1458 5.17578 19.4948 3.10547 17.0469C1.03516 14.599 0 12.3333 0 10.25C0 7.125 1.25651 4.63542 3.76953 2.78125C6.28255 0.927083 9.19271 0 12.5 0C15.8073 0 18.7174 0.927083 21.2305 2.78125C23.7435 4.63542 25 7.125 25 10.25C25 12.3333 23.9648 14.599 21.8945 17.0469C19.8242 19.4948 16.6927 22.1458 12.5 25Z" fill="#134488"/>
</svg>
