<svg width="126" height="126" viewBox="0 0 126 126" fill="none" xmlns="http://www.w3.org/2000/svg">
<path d="M116.125 13H100.5V3.625C100.5 2.7962 100.171 2.00134 99.5847 1.41529C98.9987 0.829241 98.2038 0.5 97.375 0.5C96.5462 0.5 95.7513 0.829241 95.1653 1.41529C94.5792 2.00134 94.25 2.7962 94.25 3.625V13H31.75V3.625C31.75 2.7962 31.4208 2.00134 30.8347 1.41529C30.2487 0.829241 29.4538 0.5 28.625 0.5C27.7962 0.5 27.0013 0.829241 26.4153 1.41529C25.8292 2.00134 25.5 2.7962 25.5 3.625V13H9.875C7.3886 13 5.00403 13.9877 3.24587 15.7459C1.48772 17.504 0.5 19.8886 0.5 22.375V116.125C0.5 118.611 1.48772 120.996 3.24587 122.754C5.00403 124.512 7.3886 125.5 9.875 125.5H116.125C118.611 125.5 120.996 124.512 122.754 122.754C124.512 120.996 125.5 118.611 125.5 116.125V22.375C125.5 19.8886 124.512 17.504 122.754 15.7459C120.996 13.9877 118.611 13 116.125 13ZM119.25 116.125C119.25 116.954 118.921 117.749 118.335 118.335C117.749 118.921 116.954 119.25 116.125 119.25H9.875C9.0462 119.25 8.25134 118.921 7.66529 118.335C7.07924 117.749 6.75 116.954 6.75 116.125V22.375C6.75 21.5462 7.07924 20.7513 7.66529 20.1653C8.25134 19.5792 9.0462 19.25 9.875 19.25H25.5V22.375C25.5 23.2038 25.8292 23.9987 26.4153 24.5847C27.0013 25.1708 27.7962 25.5 28.625 25.5C29.4538 25.5 30.2487 25.1708 30.8347 24.5847C31.4208 23.9987 31.75 23.2038 31.75 22.375V19.25H94.25V22.375C94.25 23.2038 94.5792 23.9987 95.1653 24.5847C95.7513 25.1708 96.5462 25.5 97.375 25.5C98.2038 25.5 98.9987 25.1708 99.5847 24.5847C100.171 23.9987 100.5 23.2038 100.5 22.375V19.25H116.125C116.954 19.25 117.749 19.5792 118.335 20.1653C118.921 20.7513 119.25 21.5462 119.25 22.375V116.125Z" fill="#FFBEBE"/>
<path d="M53.625 50.5H22.375C21.5462 50.5 20.7513 50.8292 20.1653 51.4153C19.5792 52.0013 19.25 52.7962 19.25 53.625C19.25 54.4538 19.5792 55.2487 20.1653 55.8347C20.7513 56.4208 21.5462 56.75 22.375 56.75H53.625C54.4538 56.75 55.2487 56.4208 55.8347 55.8347C56.4208 55.2487 56.75 54.4538 56.75 53.625C56.75 52.7962 56.4208 52.0013 55.8347 51.4153C55.2487 50.8292 54.4538 50.5 53.625 50.5Z" fill="#FFBEBE"/>
<path d="M101.437 38.9375L84.8748 55.4375L74.5623 45.1875C73.9822 44.6073 73.1953 44.2814 72.3748 44.2814C71.5544 44.2814 70.7675 44.6073 70.1873 45.1875C69.6072 45.7676 69.2813 46.5545 69.2812 47.375C69.2813 48.1954 69.6072 48.9823 70.1873 49.5625L82.6873 62.0625C82.9679 62.3614 83.3068 62.5997 83.683 62.7625C84.0592 62.9254 84.4649 63.0095 84.8748 63.0095C85.2848 63.0095 85.6905 62.9254 86.0667 62.7625C86.4429 62.5997 86.7818 62.3614 87.0623 62.0625L105.812 43.3125C106.1 43.0252 106.327 42.6842 106.483 42.3088C106.638 41.9335 106.718 41.5312 106.718 41.125C106.718 40.7187 106.638 40.3164 106.483 39.9411C106.327 39.5658 106.1 39.2247 105.812 38.9375C105.525 38.6502 105.184 38.4223 104.809 38.2669C104.433 38.1114 104.031 38.0314 103.625 38.0314C103.219 38.0314 102.816 38.1114 102.441 38.2669C102.066 38.4223 101.725 38.6502 101.437 38.9375Z" fill="#FFBEBE"/>
<path d="M53.625 94.25H22.375C21.5462 94.25 20.7513 94.5792 20.1653 95.1653C19.5792 95.7513 19.25 96.5462 19.25 97.375C19.25 98.2038 19.5792 98.9987 20.1653 99.5847C20.7513 100.171 21.5462 100.5 22.375 100.5H53.625C54.4538 100.5 55.2487 100.171 55.8347 99.5847C56.4208 98.9987 56.75 98.2038 56.75 97.375C56.75 96.5462 56.4208 95.7513 55.8347 95.1653C55.2487 94.5792 54.4538 94.25 53.625 94.25Z" fill="#FFBEBE"/>
<path d="M101.437 82.6875L84.8748 99.1875L74.5623 88.9375C73.9822 88.3573 73.1953 88.0314 72.3748 88.0314C71.5544 88.0314 70.7675 88.3573 70.1873 88.9375C69.6072 89.5176 69.2812 90.3045 69.2812 91.125C69.2812 91.9454 69.6072 92.7323 70.1873 93.3125L82.6873 105.812C82.9679 106.111 83.3068 106.35 83.683 106.513C84.0592 106.675 84.4649 106.759 84.8748 106.759C85.2848 106.759 85.6905 106.675 86.0667 106.513C86.4429 106.35 86.7818 106.111 87.0623 105.812L105.812 87.0625C106.1 86.7752 106.327 86.4342 106.483 86.0588C106.638 85.6835 106.718 85.2812 106.718 84.875C106.718 84.4687 106.638 84.0664 106.483 83.6911C106.327 83.3158 106.1 82.9747 105.812 82.6875C105.525 82.4002 105.184 82.1723 104.809 82.0169C104.433 81.8614 104.031 81.7814 103.625 81.7814C103.219 81.7814 102.816 81.8614 102.441 82.0169C102.066 82.1723 101.725 82.4002 101.437 82.6875Z" fill="#FFBEBE"/>
</svg>
