<svg width="150" height="150" viewBox="0 0 150 150" fill="none" xmlns="http://www.w3.org/2000/svg">
<g clip-path="url(#clip0_163_71)">
<path fill-rule="evenodd" clip-rule="evenodd" d="M118.506 119.806C117.05 117.169 115.738 114.531 114.531 111.9L119.375 110.119L117.213 104.256L112.106 106.131C110.825 102.813 109.744 99.4875 108.881 96.1625L114.462 95.0312L113.213 88.9062L107.55 90.05C106.831 86.0813 106.425 82.1062 106.3 78.125H112.5V71.875H106.344C106.519 67.9125 106.981 63.9437 107.738 59.9625L113.319 61.0937L114.562 54.9688L109.119 53.8625C109.994 50.5687 111.056 47.2625 112.325 43.9438L117.213 45.7437L119.375 39.8812L114.731 38.175C115.906 35.5562 117.188 32.9313 118.613 30.2938C130.25 41.6437 137.5 57.475 137.5 75C137.5 92.5813 130.206 108.444 118.506 119.806ZM41.4437 127.663C43.6312 123.856 45.5062 120.044 47.2062 116.219L54.0938 118.75L56.25 112.888L49.6 110.438C51.0875 106.519 52.3625 102.588 53.35 98.6438L60.0438 100L61.2875 93.875L54.6375 92.525C55.5125 87.7375 56.0125 82.9375 56.1437 78.125H62.5V71.875H56.1063C55.9188 67.0875 55.3625 62.2938 54.4438 57.4875L61.1812 56.125L59.9375 50L53.1062 51.3875C52.1062 47.475 50.8688 43.5625 49.3812 39.6437L56.25 37.1188L54.0938 31.25L47 33.8625C45.325 30.0438 43.475 26.225 41.3375 22.4062C51.0625 16.1625 62.6 12.5 75 12.5C87.4 12.5 98.9375 16.1625 108.662 22.4062C106.531 26.225 104.675 30.0438 103.006 33.8625L95.9062 31.25L93.75 37.1188L100.619 39.6437C99.1313 43.5625 97.8937 47.475 96.9 51.3875L90.0625 50L88.8188 56.125L95.55 57.4875C94.6375 62.2938 94.0875 67.0875 93.8937 71.875H87.5V78.125H93.8563C93.9875 82.9375 94.4813 87.7375 95.3625 92.525L88.7125 93.875L89.9562 100L96.65 98.6438C97.6375 102.588 98.9125 106.519 100.406 110.438L93.75 112.888L95.9062 118.75L102.794 116.219C104.494 120.044 106.375 123.856 108.556 127.663C98.85 133.856 87.3625 137.5 75 137.5C62.6437 137.5 51.15 133.856 41.4437 127.663ZM12.5 75C12.5 57.475 19.7562 41.6437 31.3937 30.2938C32.8125 32.925 34.0938 35.5562 35.2687 38.175L30.6313 39.8812L32.7875 45.7437L37.6812 43.9438C38.95 47.2625 40.0125 50.5687 40.8812 53.8625L35.4375 54.9688L36.6813 61.0937L42.2625 59.9625C43.0187 63.9437 43.4875 67.9125 43.6625 71.875H37.5V78.125H43.7062C43.575 82.1062 43.1688 86.0813 42.45 90.05L36.7875 88.9062L35.5437 95.0312L41.1188 96.1625C40.2625 99.4875 39.175 102.813 37.9 106.131L32.7875 104.256L30.6313 110.119L35.475 111.9C34.2687 114.537 32.9562 117.169 31.5 119.806C19.8 108.45 12.5 92.5813 12.5 75ZM75 0C33.6063 0 0 33.6063 0 75C0 116.394 33.6063 150 75 150C116.394 150 150 116.394 150 75C150 33.6063 116.394 0 75 0Z" fill="#FFBEBE"/>
</g>
<defs>
<clipPath id="clip0_163_71">
<rect width="150" height="150" fill="white"/>
</clipPath>
</defs>
</svg>
